<svg width="50" height="38" viewBox="0 0 50 38" fill="none" xmlns="http://www.w3.org/2000/svg">
<path d="M26.2129 14.4579C25.8368 14.6254 25.4296 14.7118 25.0178 14.7118C24.6061 14.7118 24.199 14.6254 23.8229 14.4579L12.1009 9.23669C11.6464 8.91772 11.0907 8.77648 10.5391 8.83972C9.98744 8.90295 9.4781 9.16641 9.10757 9.57995C8.73703 9.99349 8.53099 10.5286 8.52847 11.0839C8.52594 11.6391 8.72713 12.1758 9.0939 12.5926C11.7129 15.9646 19.5939 24.5098 23.1939 28.3798C23.4167 28.6194 23.6846 28.813 23.9822 28.9491C24.2798 29.0852 24.6013 29.1613 24.9284 29.1732C25.2554 29.1851 25.5816 29.1326 25.8883 29.0184C26.195 28.9042 26.4762 28.7305 26.7158 28.5077C26.7598 28.4667 26.8029 28.4238 26.8439 28.3798C30.4439 24.5098 38.3239 15.9646 40.9439 12.5926C42.3909 10.7296 40.6899 7.82769 37.9369 9.23669L26.2129 14.4579Z" fill="#BF1E00"/>
</svg>
