<svg width="85" height="85" viewBox="0 0 85 85" fill="none" xmlns="http://www.w3.org/2000/svg">
<path d="M42.735 83.2029C65.324 83.2029 83.636 64.8909 83.636 42.3019C83.636 19.7129 65.324 1.40088 42.735 1.40088C20.146 1.40088 1.83398 19.7129 1.83398 42.3019C1.83398 64.8909 20.146 83.2029 42.735 83.2029Z" stroke="white" stroke-width="2.489" stroke-miterlimit="10"/>
<path d="M39.2509 44.0149C39.4917 43.474 39.6162 42.8885 39.6162 42.2964C39.6162 41.7043 39.4917 41.1188 39.2509 40.5779L31.7419 23.7199C29.6759 19.6849 33.9539 17.3638 36.5679 19.3938C41.4179 23.1608 53.7079 34.4939 59.2679 39.6709C59.9638 40.3182 60.3743 41.2153 60.409 42.1651C60.4437 43.1149 60.0998 44.0395 59.4529 44.7359C59.393 44.7999 59.3319 44.8619 59.2679 44.9219C53.7029 50.0949 41.4129 61.4319 36.5679 65.1989C33.8889 67.2789 29.7149 64.8328 31.7419 60.8728L39.2509 44.0149Z" fill="#FFF9F5"/>
</svg>
