<svg width="57" height="57" viewBox="0 0 57 57" fill="none" xmlns="http://www.w3.org/2000/svg">
<path d="M56.8229 28.3758C56.8476 33.9774 55.2108 39.4605 52.1193 44.1319C49.0279 48.8032 44.6207 52.4529 39.4551 54.6196C34.2894 56.7862 28.5973 57.3725 23.0985 56.3042C17.5996 55.2359 12.5411 52.561 8.56242 48.6178C4.58377 44.6746 1.86372 39.6402 0.746221 34.1512C-0.371279 28.6622 0.16396 22.965 2.28426 17.7802C4.40455 12.5953 8.01468 8.15561 12.6581 5.02247C17.3016 1.88933 22.7698 0.203447 28.3714 0.178013C35.8835 0.144697 43.1011 3.09673 48.4368 8.38478C53.7724 13.6728 56.7889 20.8638 56.8229 28.3758Z" fill="#8DC63F"/>
<path d="M55.3322 27.6345C55.3557 32.7939 53.8486 37.8445 51.0017 42.1475C48.1548 46.4505 44.0958 49.8126 39.3381 51.8087C34.5804 53.8049 29.3375 54.3454 24.2726 53.3619C19.2077 52.3784 14.5482 49.915 10.8833 46.2834C7.21836 42.6517 4.71265 38.0148 3.68301 32.9591C2.65337 27.9033 3.14604 22.6558 5.09873 17.8801C7.05142 13.1044 10.3764 9.01491 14.6533 6.12888C18.9301 3.24285 23.9667 1.68986 29.1262 1.66629C32.552 1.65064 35.9474 2.30991 39.1184 3.60648C42.2894 4.90304 45.174 6.81149 47.6075 9.22286C50.0409 11.6342 51.9756 14.5013 53.301 17.6604C54.6264 20.8195 55.3166 24.2087 55.3322 27.6345Z" fill="#F9E988"/>
<path d="M28.5 3.38582C30.2337 3.08494 32.0085 3.08494 33.7422 3.38582C35.4926 3.65547 37.1844 4.20682 38.7483 5.01721C40.302 5.84801 41.6476 6.97488 42.9838 8.0383C44.32 9.10173 45.6531 10.1772 46.9209 11.3615C48.2137 12.5259 49.3421 13.8516 50.2769 15.304C51.2407 16.7467 52.0301 18.2926 52.6292 19.9112C53.7951 23.1442 54.1269 26.6059 53.5957 29.9926H53.4216C52.9098 26.7571 52.0538 23.582 50.8673 20.5184C50.2987 19.0034 49.6292 17.526 48.863 16.0956C48.0578 14.6693 47.1719 13.2875 46.2093 11.9567C45.2273 10.6096 44.0243 9.42874 42.6482 8.46126C41.2654 7.50357 39.6743 6.88122 38.1331 6.29211C36.5918 5.703 35.0505 5.1169 33.4501 4.66676C31.8498 4.21662 30.2122 3.88128 28.5062 3.555L28.5 3.38582Z" fill="white"/>
<path d="M41.7295 18.65C39.8525 18.1057 37.8988 17.3378 35.9363 16.5611C35.8243 16.0669 35.3853 15.452 34.5013 14.7017C33.2136 13.5867 30.7973 13.6161 28.7081 14.1133C26.4038 13.572 24.126 13.3808 21.9307 13.9044C4.05898 18.8177 14.1956 30.8301 7.63037 42.8926C8.56447 44.8696 18.6333 56.4261 33.2018 53.3163C33.2018 53.3163 28.2219 41.3627 39.4635 35.6257C48.5835 30.9566 55.1753 22.3129 41.7295 18.65Z" fill="#8BC53F"/>
<path d="M43.4069 26.2588C43.4081 26.4064 43.3654 26.551 43.2844 26.6743C43.2033 26.7976 43.0874 26.8941 42.9515 26.9515C42.8155 27.0089 42.6655 27.0247 42.5206 26.9968C42.3757 26.9689 42.2423 26.8986 42.1374 26.7948C42.0325 26.691 41.9607 26.5584 41.9312 26.4138C41.9017 26.2692 41.9159 26.1191 41.9718 25.9825C42.0277 25.8459 42.1229 25.729 42.2453 25.6466C42.3678 25.5642 42.5119 25.5199 42.6595 25.5195C42.7571 25.519 42.8539 25.5377 42.9443 25.5746C43.0346 25.6114 43.1169 25.6657 43.1863 25.7344C43.2557 25.803 43.3109 25.8847 43.3487 25.9747C43.3866 26.0646 43.4063 26.1612 43.4069 26.2588Z" fill="white"/>
<path d="M28.5 14.0226C29.843 14.1207 34.7016 15.7195 35.9535 16.5771C34.9173 13.5142 31.3957 13.116 28.5 14.0226Z" fill="#009345"/>
<path d="M29.9907 21.7936C29.9907 22.8255 29.6848 23.8342 29.1115 24.6922C28.5382 25.5502 27.7233 26.219 26.77 26.6139C25.8166 27.0088 24.7675 27.1121 23.7555 26.9108C22.7434 26.7094 21.8137 26.2125 21.0841 25.4829C20.3544 24.7532 19.8575 23.8235 19.6562 22.8115C19.4548 21.7994 19.5582 20.7503 19.9531 19.797C20.348 18.8436 21.0167 18.0288 21.8747 17.4555C22.7327 16.8822 23.7414 16.5762 24.7733 16.5762C26.1571 16.5762 27.4841 17.1259 28.4626 18.1043C29.4411 19.0828 29.9907 20.4098 29.9907 21.7936Z" fill="white"/>
<path d="M28.5 21.7881C28.5006 22.5253 28.2826 23.2461 27.8735 23.8594C27.4644 24.4726 26.8825 24.9508 26.2016 25.2333C25.5207 25.5159 24.7713 25.5901 24.0482 25.4467C23.325 25.3032 22.6607 24.9485 22.1392 24.4275C21.6177 23.9064 21.2625 23.2424 21.1184 22.5194C20.9744 21.7964 21.048 21.0469 21.33 20.3657C21.6119 19.6846 22.0896 19.1024 22.7025 18.6927C23.3154 18.2831 24.0361 18.0645 24.7733 18.0645C25.7609 18.0653 26.7079 18.4578 27.4065 19.1558C28.1051 19.8538 28.4984 20.8005 28.5 21.7881Z" fill="#58595B"/>
<path d="M47.879 29.173C43.8667 31.968 39.3029 34.0764 32.8307 34.0764C29.8017 34.0764 29.1889 30.9036 27.1871 32.4554C26.1512 33.2602 22.5183 35.0513 19.6148 34.9244C16.7113 34.7975 12.0279 33.1102 10.7293 27.0098C10.2128 33.1102 9.9473 37.604 7.63037 42.7554C12.2467 50.0615 23.2507 55.6946 33.2363 53.2718C32.1653 45.8648 38.7134 38.6077 42.4048 34.8956C43.7996 33.4909 46.49 31.195 47.879 29.1615V29.173Z" fill="#8BC53F"/>
<path d="M47.879 28.5711C46.555 29.8475 45.0778 30.9092 43.4906 31.7252C41.9085 32.5679 40.2591 33.2416 38.5643 33.7376C36.8718 34.2288 35.1007 34.5981 33.3085 34.4151C31.5163 34.2322 29.6817 33.5479 28.5 32.0437L28.5574 31.9691C30.0202 33.0295 31.6916 33.4022 33.3599 33.4564C35.0537 33.5115 36.7477 33.3536 38.4101 32.9855C40.0896 32.5931 41.7328 32.026 43.3183 31.2916C44.9295 30.6019 46.4464 29.6622 47.8246 28.5L47.879 28.5711Z" fill="#58595B"/>
</svg>
