<svg width="51" height="51" viewBox="0 0 51 51" fill="none" xmlns="http://www.w3.org/2000/svg">
<circle cx="25.5" cy="25.5008" r="25.4129" fill="url(#paint0_linear_5179_206)"/>
<path fill-rule="evenodd" clip-rule="evenodd" d="M36.9089 28.51C36.3708 28.8506 35.7373 28.8928 35.2557 28.6207C34.6439 28.2749 34.3075 27.4648 34.3075 26.3383V22.9679C34.3075 21.3403 33.6649 20.1821 32.5904 19.8694C30.7693 19.3382 29.3998 21.5693 28.8851 22.4072L25.6735 27.6216V21.2483C25.6374 19.782 25.1618 18.9049 24.2588 18.6404C23.6614 18.4656 22.7674 18.5357 21.899 19.8664L14.7038 31.4359C13.7406 29.6048 13.2387 27.5658 13.241 25.4959C13.241 18.5266 18.8184 12.8572 25.6735 12.8572C32.5287 12.8572 38.1053 18.5266 38.1053 25.4959C38.1053 25.508 38.1083 25.5185 38.1091 25.5298C38.1091 25.5419 38.1068 25.5524 38.1076 25.5645C38.1723 26.914 37.7359 27.987 36.9089 28.51ZM40.8677 25.4967V25.4612L40.8669 25.4266C40.8286 16.939 34.0284 10.0488 25.6728 10.0488C17.2953 10.0488 10.4786 16.9782 10.4786 25.4959C10.4786 34.0129 17.2953 40.943 25.6735 40.943C29.518 40.943 33.1871 39.4797 36.0036 36.8235C36.5635 36.2961 36.5966 35.4077 36.0774 34.8395C35.8185 34.5532 35.4498 34.3904 35.0645 34.3904C34.7154 34.3904 34.379 34.5238 34.1254 34.7642C31.8431 36.9283 28.8166 38.1354 25.6735 38.1346C22.0029 38.1346 18.7002 36.5078 16.4225 33.9278L22.9111 23.4946V28.3043C22.9111 30.6145 23.8058 31.3613 24.5561 31.5798C25.3071 31.7983 26.4546 31.6491 27.6593 29.69L31.2284 23.8962C31.3427 23.7093 31.4481 23.5481 31.5444 23.4087V26.3383C31.5444 28.4979 32.4083 30.225 33.914 31.0757C35.2715 31.8428 36.9781 31.7735 38.3687 30.8949C40.0543 29.8286 40.9625 27.8642 40.8677 25.4967Z" fill="white"/>
<defs>
<linearGradient id="paint0_linear_5179_206" x1="3.07679" y1="-11.8711" x2="37.2099" y2="50.9138" gradientUnits="userSpaceOnUse">
<stop stop-color="#6484FF"/>
<stop offset="1" stop-color="#3861FB"/>
</linearGradient>
</defs>
</svg>
