<svg width="216" height="59" viewBox="0 0 216 59" fill="none" xmlns="http://www.w3.org/2000/svg">
<rect width="216" height="59" rx="14" fill="#040404"/>
<path d="M64.3618 20.7429H77.3961V12.3771H81.1074V32.8492H77.3942V24.4834H64.3599V32.8492H60.6486V12.3771H64.3608L64.3618 20.7429ZM100.894 27.7382C100.894 28.2523 100.803 28.8097 100.623 29.4086C100.435 30.0117 100.135 30.5737 99.7375 31.0647C99.3376 31.5693 98.8095 31.9928 98.153 32.3352C97.506 32.6785 96.7157 32.8492 95.7829 32.8492H89.0875C88.5734 32.8492 88.017 32.7586 87.4181 32.5785C86.8169 32.392 86.2552 32.0966 85.761 31.707C85.2573 31.2977 84.8338 30.7695 84.4905 30.1225C84.1482 29.4661 83.9765 28.671 83.9765 27.7382C83.9765 27.2242 84.0671 26.6678 84.2481 26.0689C84.4292 25.469 84.7197 24.9163 85.1187 24.4117C85.528 23.8987 86.0562 23.4695 86.7032 23.1272C87.3605 22.7848 88.1556 22.6131 89.0875 22.6131H95.7838V26.1537H89.0875C88.5829 26.1537 88.1933 26.3112 87.9179 26.6253C87.6407 26.93 87.503 27.31 87.503 27.7665C87.503 28.2523 87.6605 28.6333 87.9745 28.9096C88.298 29.1756 88.6781 29.3086 89.1157 29.3086H95.7838C96.2875 29.3086 96.6779 29.1567 96.9533 28.8521C97.2297 28.5475 97.3683 28.1664 97.3683 27.7109V22.5273C97.3683 22.0425 97.2155 21.6568 96.9109 21.371C96.6157 21.0862 96.2403 20.9428 95.7829 20.9428H87.6312V17.4164H95.7829C96.2969 17.4164 96.8487 17.5069 97.4391 17.688C98.0439 17.8717 98.6067 18.1726 99.0953 18.5736C99.6093 18.9726 100.038 19.5007 100.38 20.1581C100.723 20.8051 100.894 21.5955 100.894 22.5273V27.7382ZM118.983 27.6383C118.983 28.2768 118.901 28.8521 118.739 29.3661C118.591 29.8421 118.375 30.2942 118.098 30.7082C117.83 31.0883 117.522 31.4175 117.169 31.6929C116.825 31.9549 116.451 32.1755 116.056 32.3503C115.68 32.5197 115.288 32.6487 114.885 32.7351C114.495 32.8105 114.123 32.8492 113.772 32.8492H103.72V29.1379H113.743C114.248 29.1379 114.629 29.0096 114.886 28.7521C115.143 28.4956 115.271 28.124 115.271 27.6392C115.224 26.6489 114.724 26.1537 113.772 26.1537H108.018C107.201 26.1537 106.506 26.0113 105.934 25.7255C105.363 25.4398 104.897 25.0833 104.535 24.6551C104.194 24.2457 103.932 23.7757 103.765 23.2696C103.62 22.822 103.543 22.3553 103.537 21.885C103.537 21.0569 103.684 20.3628 103.979 19.8007C104.274 19.2301 104.645 18.7679 105.092 18.4161C105.54 18.0643 106.026 17.8125 106.548 17.6597C107.024 17.5054 107.52 17.4234 108.019 17.4164H117.142V21.1286H108.047C107.856 21.1286 107.704 21.1522 107.589 21.2003C107.493 21.2321 107.409 21.2915 107.347 21.371C107.299 21.4384 107.27 21.5171 107.262 21.5993C107.252 21.6753 107.247 21.7518 107.247 21.8284C107.256 21.9803 107.285 22.0991 107.333 22.1849C107.38 22.2708 107.437 22.333 107.504 22.3708C107.58 22.4085 107.661 22.433 107.747 22.4424H113.772C114.723 22.4424 115.533 22.6131 116.198 22.9555C116.864 23.2988 117.402 23.7317 117.811 24.2552C118.213 24.754 118.514 25.3261 118.697 25.9396C118.887 26.5489 118.983 27.1148 118.983 27.6383ZM138.755 32.8492H135.043V22.6131C135.043 22.1284 134.919 21.7615 134.672 21.5144C134.424 21.2569 134.053 21.1286 133.558 21.1286H126.863V17.4164H133.558C133.911 17.4164 134.281 17.4598 134.672 17.5456C135.062 17.621 135.447 17.7455 135.828 17.9162C136.219 18.0879 136.589 18.3124 136.942 18.5878C137.294 18.8537 137.603 19.182 137.869 19.5724C138.136 19.9535 138.35 20.3958 138.512 20.9004C138.674 21.405 138.755 21.9756 138.755 22.6131V32.8492ZM125.364 32.8492H121.652V10.8926H125.364V32.8492ZM159.399 24.4834H147.677V20.7429H159.399V24.4834ZM161.069 32.8492H147.677C147.163 32.8492 146.602 32.7586 145.993 32.5785C145.375 32.3933 144.799 32.0928 144.294 31.6929C143.78 31.2741 143.347 30.7365 142.995 30.0801C142.652 29.4133 142.481 28.5993 142.481 27.6383V14.2474C142.481 13.9908 142.528 13.7475 142.624 13.5193C142.719 13.291 142.847 13.0911 143.009 12.9194C143.18 12.7487 143.38 12.6148 143.608 12.5205C143.837 12.4252 144.085 12.3771 144.351 12.3771H161.069V16.0894H146.193V27.6383C146.193 28.124 146.321 28.4956 146.578 28.7521C146.835 29.0096 147.211 29.1379 147.706 29.1379H161.069V32.8492ZM181.883 17.4164L175.216 24.6975L182.726 32.8492H177.615L172.675 27.4676L167.735 32.8492H162.61L170.105 24.6692L163.467 17.4164H168.549L172.646 21.885L176.772 17.4164H181.883Z" fill="white"/>
<path d="M35.5824 17.0832H38.8853L40.0237 12.0996H43.7585L42.6362 17.0832H46.4795L47.6019 12.0996H51.3519L50.2144 17.0832H53.7494L52.9505 20.6012H49.4297L48.6148 24.287H52.0121L51.2274 27.805H47.8311L46.6946 32.849H42.9446L44.082 27.805H40.2396L39.1022 32.849H35.3673L36.4897 27.805H33L33.8451 24.287H37.2725L38.1025 20.6021H34.7363L35.5824 17.0832ZM41.0234 24.287H44.8658L45.6798 20.6021H41.8373L41.0234 24.287Z" fill="#C2F051"/>
<path d="M60.2949 41.2617H62.2849C62.5367 41.2617 62.7914 41.29 63.0489 41.3466C63.3063 41.3975 63.5365 41.4881 63.7374 41.6201C63.946 41.747 64.1182 41.9257 64.2372 42.1388C64.3693 42.3595 64.4353 42.6359 64.4353 42.9688C64.4353 43.3216 64.3287 43.629 64.1146 43.8931C63.9005 44.1515 63.6148 44.3213 63.2564 44.4024V44.4213C63.6902 44.4722 64.0486 44.642 64.3316 44.9306C64.6211 45.2135 64.7654 45.6002 64.7654 46.0907C64.767 46.3522 64.7072 46.6104 64.5909 46.8446C64.4746 47.0788 64.305 47.2825 64.0958 47.4394C63.8588 47.6076 63.5937 47.7322 63.3129 47.8072C63.0045 47.8958 62.6593 47.9392 62.2755 47.9392H60.2949V41.2617ZM60.9739 44.1855H62.3415C62.5047 44.1855 62.6688 44.1666 62.8319 44.1289C63.0017 44.0912 63.1554 44.0289 63.2941 43.9403C63.4417 43.8366 63.5613 43.6979 63.642 43.5365C63.7226 43.3752 63.7619 43.1963 63.7562 43.016C63.7562 42.8028 63.7119 42.6236 63.6242 42.4784C63.5439 42.329 63.4271 42.2025 63.2847 42.1105C63.1404 42.0162 62.9706 41.9502 62.7754 41.9125C62.571 41.8674 62.3622 41.8453 62.1529 41.8465H60.9739V44.1855ZM60.9739 47.3545H62.2378C62.483 47.3545 62.7159 47.3328 62.9357 47.2885C63.162 47.2385 63.3573 47.163 63.5204 47.0621C63.6902 46.9555 63.8251 46.8207 63.926 46.6565C64.0269 46.4868 64.0769 46.2859 64.0769 46.0529C64.0769 45.6134 63.926 45.2861 63.6242 45.072C63.329 44.8523 62.9074 44.7419 62.3604 44.7419H60.9739V47.3545ZM67.9127 47.3356H71.0251V47.9392H67.2336V41.2617H67.9127V47.3356ZM79.3013 44.6005C79.3013 45.1098 79.2136 45.5785 79.0372 46.0058C78.8686 46.422 78.6185 46.8004 78.3015 47.1187C77.9858 47.4318 77.6106 47.6788 77.1981 47.8449C76.7774 48.0213 76.3181 48.109 75.821 48.109C75.346 48.1132 74.8748 48.0234 74.4346 47.8449C74.0237 47.6757 73.6491 47.4292 73.3311 47.1187C73.0191 46.7984 72.7725 46.4204 72.6049 46.0058C72.4252 45.5593 72.3355 45.0817 72.3408 44.6005C72.3408 44.0912 72.4295 43.6234 72.6049 43.1952C72.7711 42.7826 73.018 42.4075 73.3311 42.0917C73.647 41.7763 74.022 41.5263 74.4346 41.356C74.8628 41.1806 75.3249 41.0919 75.821 41.0919C76.3181 41.0919 76.7774 41.1806 77.1981 41.356C77.6262 41.5324 77.9941 41.7776 78.3015 42.0917C78.6166 42.4001 78.8618 42.7679 79.0372 43.1952C79.2136 43.6234 79.3013 44.0912 79.3013 44.6005ZM78.5845 44.6005C78.5845 44.2109 78.5222 43.8403 78.3959 43.4876C78.2765 43.1463 78.0906 42.8321 77.8488 42.5633C77.6054 42.2895 77.3064 42.0709 76.9717 41.9219C76.61 41.76 76.2172 41.6796 75.821 41.6861C75.3938 41.6861 75.0071 41.7654 74.661 41.9219C74.3214 42.0794 74.0328 42.2935 73.7933 42.5633C73.5546 42.8273 73.3726 43.1358 73.2462 43.4876C73.1208 43.8403 73.0576 44.2109 73.0576 44.6005C73.0576 44.9909 73.1208 45.3616 73.2462 45.7134C73.3726 46.0661 73.5546 46.3736 73.7933 46.6377C74.0328 46.9018 74.3214 47.113 74.661 47.2696C75.0071 47.4271 75.3938 47.5054 75.821 47.5054C76.2492 47.5054 76.6322 47.4271 76.9717 47.2696C77.3178 47.113 77.6102 46.9018 77.8488 46.6377C78.0884 46.3736 78.2704 46.0661 78.3959 45.7134C78.5222 45.3616 78.5845 44.9909 78.5845 44.6005ZM87.2766 46.864C87.1634 47.0338 87.0257 47.1941 86.8616 47.345C86.705 47.496 86.5192 47.628 86.3051 47.7412C86.0976 47.8543 85.8656 47.943 85.6072 48.0053C85.3563 48.075 85.079 48.109 84.7772 48.109C84.2991 48.1138 83.8247 48.024 83.3814 47.8449C82.9688 47.6788 82.5936 47.4319 82.2779 47.1187C81.9659 46.7984 81.7192 46.4204 81.5516 46.0058C81.3819 45.5785 81.297 45.1098 81.297 44.6005C81.297 44.0912 81.3857 43.6234 81.5611 43.1952C81.7374 42.7679 81.9798 42.4001 82.2873 42.0917C82.6032 41.7763 82.9782 41.5263 83.3908 41.356C83.819 41.1806 84.2811 41.0919 84.7772 41.0919C85.2548 41.0905 85.7273 41.1901 86.1637 41.3843C86.3712 41.473 86.5598 41.5824 86.7296 41.7144C86.8993 41.8408 87.0408 41.9851 87.154 42.1483L86.5881 42.5633C86.5083 42.4444 86.4132 42.3365 86.3051 42.2426C86.1837 42.13 86.0472 42.0347 85.8996 41.9596C85.7344 41.8748 85.5605 41.8084 85.3808 41.7616C85.1871 41.7098 84.9872 41.6845 84.7867 41.6861C84.3528 41.6861 83.9633 41.7654 83.6172 41.9219C83.2776 42.0794 82.989 42.2935 82.7495 42.5633C82.5108 42.8273 82.3288 43.1358 82.2024 43.4876C82.0757 43.8448 82.0119 44.2214 82.0138 44.6005C82.0138 44.9909 82.077 45.3616 82.2024 45.7134C82.3345 46.0661 82.5203 46.3774 82.7589 46.6471C82.9984 46.9112 83.287 47.1225 83.6266 47.279C83.9727 47.4365 84.3594 47.5148 84.7867 47.5148C85.1705 47.5148 85.5355 47.4365 85.8807 47.279C86.2353 47.1143 86.536 46.8527 86.7484 46.5245L87.2766 46.864ZM90.0664 44.2609H90.0759L93.2543 41.2617H94.2257L90.8587 44.2892L94.4144 47.9392H93.4146L90.0759 44.3835H90.0664V47.9392H89.3874V41.2617H90.0664V44.2609ZM101.643 46.864C101.53 47.0338 101.392 47.1941 101.228 47.345C101.071 47.496 100.886 47.628 100.671 47.7412C100.464 47.8543 100.232 47.943 99.9733 48.0053C99.7224 48.075 99.4451 48.109 99.1433 48.109C98.6652 48.1138 98.1908 48.024 97.7475 47.8449C97.3349 47.6788 96.9598 47.4318 96.644 47.1187C96.332 46.7984 96.0853 46.4204 95.9178 46.0058C95.748 45.5785 95.6631 45.1098 95.6631 44.6005C95.6631 44.0912 95.7518 43.6234 95.9272 43.1952C96.0933 42.7826 96.3403 42.4075 96.6534 42.0917C96.9693 41.7763 97.3443 41.5263 97.7569 41.356C98.1851 41.1806 98.6472 41.0919 99.1433 41.0919C99.6209 41.0905 100.093 41.1901 100.53 41.3843C100.737 41.473 100.926 41.5824 101.096 41.7144C101.265 41.8408 101.407 41.9851 101.52 42.1483L100.954 42.5633C100.875 42.4443 100.779 42.3365 100.671 42.2426C100.55 42.1299 100.413 42.0347 100.266 41.9596C100.101 41.8748 99.9266 41.8084 99.747 41.7616C99.5532 41.7098 99.3533 41.6844 99.1528 41.6861C98.7189 41.6861 98.3294 41.7654 97.9833 41.9219C97.6437 42.0794 97.3551 42.2935 97.1156 42.5633C96.8779 42.8273 96.6949 43.1358 96.5685 43.4876C96.4431 43.8403 96.3799 44.2109 96.3799 44.6005C96.3799 44.9909 96.4431 45.3616 96.5685 45.7134C96.7006 46.0661 96.8864 46.3774 97.125 46.6471C97.3645 46.9112 97.6532 47.1225 97.9927 47.279C98.3398 47.4365 98.7265 47.5148 99.1528 47.5148C99.5302 47.5162 99.9035 47.4357 100.247 47.279C100.601 47.1143 100.902 46.8527 101.115 46.5245L101.643 46.864ZM103.753 41.2617H104.433V44.1572H108.073V41.2617H108.752V47.9392H108.073V44.7797H104.433V47.9392H103.753V41.2617ZM111.419 47.9392H110.674L113.56 41.2617H114.221L117.088 47.9392H116.333L115.598 46.185H112.146L111.419 47.9392ZM112.4 45.5625H115.343L113.872 42.0162L112.4 45.5625ZM119.693 47.9392H119.014V41.2617H119.693V47.9392ZM127.141 46.9489H127.16V41.2617H127.839V47.9392H126.99L123.104 42.1954H123.085V47.9392H122.406V41.2617H123.255L127.141 46.9489ZM137.088 42.3369C136.943 42.1351 136.752 41.9703 136.532 41.8559C136.305 41.7305 136.032 41.6673 135.711 41.6673C135.548 41.6673 135.381 41.6927 135.211 41.7427C135.042 41.7936 134.888 41.8719 134.749 41.9785C134.609 42.0809 134.493 42.2129 134.41 42.3652C134.328 42.5227 134.287 42.7085 134.287 42.9217C134.287 43.1358 134.328 43.3121 134.41 43.4498C134.492 43.5885 134.598 43.7082 134.73 43.8082C134.869 43.9025 135.023 43.9818 135.193 44.044C135.369 44.1072 135.551 44.1704 135.74 44.2326C135.973 44.3081 136.205 44.3901 136.437 44.4779C136.676 44.5665 136.89 44.6825 137.079 44.8268C137.267 44.9655 137.421 45.1447 137.541 45.3644C137.661 45.5785 137.72 45.852 137.72 46.185C137.729 46.4667 137.67 46.7464 137.549 47.0008C137.428 47.2551 137.247 47.4767 137.022 47.6469C136.821 47.8044 136.588 47.9204 136.324 47.9958C135.874 48.1288 135.397 48.145 134.938 48.043C134.74 48.0062 134.547 47.9461 134.363 47.8638C134.18 47.7819 134.009 47.6773 133.853 47.5525C133.696 47.427 133.557 47.2811 133.438 47.1187L134.023 46.6848C134.167 46.9244 134.369 47.1253 134.627 47.2885C134.891 47.446 135.199 47.5242 135.551 47.5242C135.727 47.5234 135.901 47.498 136.07 47.4488C136.246 47.3922 136.403 47.3111 136.541 47.2036C136.686 47.0904 136.802 46.9555 136.89 46.798C136.985 46.6349 137.032 46.4462 137.032 46.2321C137.032 46.0001 136.985 45.8077 136.89 45.6568C136.804 45.5009 136.681 45.3683 136.532 45.2701C136.372 45.1585 136.197 45.0697 136.013 45.006C135.81 44.934 135.605 44.8648 135.4 44.7985C135.18 44.7292 134.963 44.6505 134.749 44.5627C134.542 44.4786 134.348 44.3641 134.174 44.2232C134.002 44.0762 133.861 43.8967 133.759 43.695C133.658 43.4875 133.608 43.2329 133.608 42.9311C133.608 42.6104 133.671 42.3341 133.797 42.1011C133.929 41.8691 134.098 41.6767 134.306 41.5258C134.513 41.3749 134.743 41.2655 134.994 41.1957C135.246 41.1268 135.494 41.0919 135.74 41.0919C136.192 41.0919 136.579 41.174 136.9 41.3372C137.22 41.4947 137.463 41.6833 137.626 41.9031L137.088 42.3369ZM140.8 47.3356H144.374V47.9392H140.121V41.2617H144.261V41.8653H140.8V44.1666H144.035V44.7608H140.8V47.3356ZM152.266 46.864C152.153 47.0338 152.015 47.1941 151.851 47.345C151.694 47.496 151.508 47.628 151.295 47.7412C151.088 47.8543 150.855 47.943 150.597 48.0053C150.345 48.075 150.069 48.109 149.767 48.109C149.289 48.1139 148.815 48.0241 148.371 47.8449C147.959 47.6791 147.583 47.4321 147.268 47.1187C146.955 46.7986 146.709 46.4205 146.541 46.0058C146.372 45.5785 146.287 45.1098 146.287 44.6005C146.287 44.0912 146.375 43.6234 146.551 43.1952C146.717 42.7816 146.965 42.4057 147.279 42.0897C147.593 41.7737 147.968 41.5242 148.381 41.356C148.821 41.1775 149.292 41.0877 149.767 41.0919C150.245 41.0905 150.717 41.1902 151.154 41.3843C151.361 41.473 151.55 41.5824 151.719 41.7144C151.889 41.8408 152.031 41.9851 152.144 42.1483L151.578 42.5633C151.498 42.4446 151.403 42.3368 151.295 42.2426C151.173 42.1301 151.037 42.0349 150.889 41.9596C150.724 41.8749 150.55 41.8085 150.371 41.7616C150.177 41.7099 149.977 41.6845 149.777 41.6861C149.343 41.6861 148.952 41.7654 148.607 41.9219C148.279 42.0752 147.984 42.2927 147.741 42.5616C147.498 42.8305 147.312 43.1454 147.192 43.4876C147.066 43.8403 147.004 44.2109 147.004 44.6005C147.004 44.9909 147.066 45.3616 147.192 45.7134C147.324 46.0661 147.509 46.3774 147.749 46.6471C147.987 46.9112 148.277 47.1225 148.616 47.279C148.962 47.4365 149.348 47.5148 149.777 47.5148C150.159 47.5148 150.524 47.4365 150.871 47.279C151.216 47.1225 151.505 46.8706 151.738 46.5245L152.266 46.864ZM156.838 48.109C156.335 48.109 155.923 48.0241 155.602 47.8543C155.282 47.6789 155.027 47.4582 154.838 47.1941C154.653 46.9361 154.518 46.6447 154.442 46.3359C154.376 46.0449 154.341 45.7477 154.339 45.4493V41.2617H155.018V45.3739C155.018 45.6445 155.049 45.9086 155.112 46.1661C155.171 46.4088 155.273 46.6388 155.414 46.8452C155.558 47.0404 155.747 47.2007 155.98 47.3262C156.213 47.446 156.498 47.5054 156.838 47.5054C157.177 47.5054 157.463 47.446 157.696 47.3262C157.929 47.2007 158.114 47.0404 158.253 46.8452C158.399 46.6406 158.504 46.4102 158.564 46.1661C158.627 45.9086 158.658 45.6445 158.658 45.3739V41.2617H159.337V45.4493C159.337 45.7266 159.3 46.0218 159.224 46.3359C159.155 46.6443 159.026 46.9301 158.837 47.1941C158.649 47.4582 158.391 47.6789 158.064 47.8543C157.743 48.0241 157.335 48.109 156.838 48.109ZM162.695 47.9392H162.016V41.2617H163.978C164.304 41.2617 164.606 41.2938 164.883 41.356C165.166 41.4192 165.407 41.523 165.609 41.6673C165.817 41.8059 165.977 41.9879 166.09 42.2143C166.203 42.4406 166.26 42.7179 166.26 43.0443C166.263 43.2666 166.221 43.4872 166.136 43.693C166.052 43.8988 165.927 44.0855 165.77 44.2421C165.613 44.3903 165.431 44.5085 165.232 44.591C165.024 44.6797 164.798 44.7363 164.553 44.7608L166.505 47.9392H165.675L163.827 44.8174H162.695V47.9392ZM162.695 44.2326H163.874C164.421 44.2326 164.841 44.1355 165.138 43.9403C165.433 43.7394 165.581 43.4404 165.581 43.0443C165.581 42.8245 165.539 42.6387 165.458 42.4878C165.378 42.3386 165.261 42.2121 165.119 42.12C164.974 42.0257 164.798 41.9568 164.591 41.9125C164.364 41.8666 164.133 41.8445 163.902 41.8465H162.695V44.2326ZM169.284 47.9392H168.605V41.2617H169.284V47.9392ZM174.138 47.9392H173.459V41.8653H171.224V41.2617H176.373V41.8653H174.138V47.9392ZM180.501 47.9392H179.822V45.0626L177.322 41.2617H178.171L180.18 44.4967L182.208 41.2617H183L180.501 45.0626V47.9392Z" fill="#C4C4C4"/>
</svg>
