<svg width="1062" height="1056" viewBox="0 0 1062 1056" fill="none" xmlns="http://www.w3.org/2000/svg">
<path style="mix-blend-mode:overlay" opacity="0.5" d="M579.744 1055.52L718.538 1031.04L573.708 593.416L874.134 933.972L973.79 834.316L585.256 544.836L1061.7 574.664V433.727L605.576 500.364L993.126 263.639L912.289 148.191L576.873 464.4L758.555 48.2L626.119 0L532.734 451.406L442.834 6.26294L306.702 42.736L489.123 466.074L160.159 153.002L69.5671 260.965L461.814 503.111L12.7691 435.336L0.486084 575.736L460.686 549.107L53.9781 751.157L124.446 873.211L486.145 587.436L268.879 986.222L396.61 1045.78L528.984 604.231L579.744 1055.52Z" fill="url(#paint0_radial_3581_2167)"/>
<defs>
<radialGradient id="paint0_radial_3581_2167" cx="0" cy="0" r="1" gradientUnits="userSpaceOnUse" gradientTransform="translate(526.298 527.757) scale(529.011 528.813)">
<stop offset="0.299" stop-color="white"/>
<stop offset="1" stop-color="#FEFEFE" stop-opacity="0"/>
</radialGradient>
</defs>
</svg>
