<svg width="27" height="27" viewBox="0 0 27 27" fill="none" xmlns="http://www.w3.org/2000/svg">
<path fill-rule="evenodd" clip-rule="evenodd" d="M13.5 27C6.05607 27 0 20.9439 0 13.5C0 6.05607 6.05607 0 13.5 0C20.9439 0 27 6.05607 27 13.5C27 20.9439 20.9439 27 13.5 27ZM20.5009 18.2425C20.6673 18.2425 20.8028 18.107 20.8028 17.9405V9.46524L13.9342 14.9197C13.8071 15.0206 13.6535 15.0711 13.4999 15.0711C13.3464 15.0711 13.1929 15.0206 13.0657 14.9197L6.19713 9.46524V17.9405C6.19713 18.107 6.33261 18.2425 6.49904 18.2425H20.5009ZM19.4483 8.75754L13.5 13.4812L7.55162 8.75754H19.4483ZM22.1994 9.05945V17.9407C22.1994 18.8772 21.4374 19.6391 20.5009 19.6391H6.49904C5.56247 19.6391 4.80062 18.8772 4.80062 17.9407V9.05945C4.80062 8.12294 5.56253 7.36103 6.49904 7.36103H20.5009C21.4374 7.36098 22.1994 8.12294 22.1994 9.05945Z" fill="white"/>
</svg>
