<svg width="244" height="140" viewBox="0 0 244 140" fill="none" xmlns="http://www.w3.org/2000/svg">
<path d="M134.146 0.433526C133.79 1.49132 133.654 2.61091 133.744 3.72372C133.744 6.4363 133.113 9.61109 131.103 16.5375C130.716 17.9559 130.447 19.4044 130.299 20.8677C130.299 22.0791 129.783 24.1009 127.888 29.7567C127.602 30.6803 126.74 34.0857 125.994 37.2606C125.19 40.4355 124.042 44.823 123.411 47.0743C122.722 49.2675 121.975 52.1534 121.745 53.424C121.518 54.6542 121.152 55.8546 120.655 57.002C120.259 57.7113 120.024 58.5001 119.966 59.3116C119.844 60.26 119.553 61.1785 119.109 62.024C118.707 62.7244 118.418 63.4843 118.251 64.2755C117.949 65.5635 117.526 66.8199 116.989 68.0279C115.725 71.0875 114.577 71.7224 113.659 69.8752C112.683 67.9699 111.363 62.371 110.961 58.8491C110.502 54.1158 108.894 50.249 107.459 50.249C105.967 50.249 105.622 51.6922 105.622 59.0227C105.706 64.8605 104.833 70.6724 103.039 76.2249C102.34 78.0834 101.783 79.9929 101.374 81.9368C101.029 83.6686 100.398 85.1698 99.996 85.3422C99.4794 85.5157 99.308 84.0145 99.2458 79.5701C99.3264 76.9891 99.0742 74.4084 98.4956 71.8925C97.4624 69.1799 95.6254 66.4093 94.9363 66.4093C93.4433 66.4093 91.4916 73.3937 90.9171 80.8396C90.5731 85.8046 89.3673 88.9796 88.2774 87.8825C87.9322 87.5366 87.9322 85.1116 88.392 80.7825C91.2622 53.9413 91.8935 35.9309 90.0565 33.7378C89.7022 33.2894 89.1867 32.9991 88.6214 32.9295C87.5303 32.9295 85.3493 37.432 85.7512 38.9321C85.8817 40.6885 85.7851 42.4545 85.464 44.1859C84.3741 51.9535 83.7417 59.7791 83.5701 67.6217C83.4544 72.9315 83.0525 77.7229 82.7663 78.3006C82.2081 79.7547 81.8039 81.2639 81.5605 82.8032C80.8714 86.4393 78.8619 91.2309 78.0012 91.2309C77.714 91.2309 77.4846 87.709 77.4846 83.3799C77.4846 75.0105 77.0248 73.1631 74.3851 70.277C74.0826 69.8555 73.6714 69.5253 73.1957 69.3217C72.7201 69.118 72.1982 69.049 71.6863 69.122C70.5963 69.2955 70.0787 68.9495 69.276 67.5636C67.4958 64.5622 65.7734 65.947 64.3383 71.6049C63.9364 73.048 63.4198 75.1257 63.1326 76.2228C62.8454 77.3199 62.3298 79.6855 61.9847 81.4174C61.5828 83.1492 60.9515 85.7465 60.4928 87.1895C60.0846 88.4058 59.8149 89.6646 59.689 90.942C59.463 92.2429 59.0572 93.5056 58.4833 94.6934C57.3354 97.1721 57.2775 97.2337 56.4169 96.1366C55.7278 95.213 55.6667 93.8282 55.9571 88.7479C56.0684 86.0217 56.453 83.3137 57.105 80.6651C57.6381 78.9344 58.0035 77.1558 58.196 75.3543C58.5979 71.314 57.3922 67.9655 55.3259 67.6767C53.8329 67.4461 53.0301 69.3514 52.5703 74.2C52.2618 77.4636 51.3876 80.6477 49.9874 83.6083C49.6538 84.2407 49.3672 84.897 49.13 85.5719C48.9585 86.1485 48.5566 86.6106 48.2115 86.6106C47.7527 86.6106 47.5801 84.0124 47.638 78.4137C47.7527 68.196 47.8095 69.1197 46.547 67.6767C44.4227 65.198 43.3317 66.4072 42.8151 71.6028C42.5541 73.9382 42.1322 76.2526 41.5525 78.5292C37.8217 91.8636 37.0747 91.7481 36.5581 77.9514C36.2708 69.582 36.1562 68.485 34.779 65.5418C32.8841 61.6157 31.5069 61.3279 29.8413 64.6796C29.2611 65.7374 28.8724 66.8904 28.6935 68.085C28.5754 69.0461 28.304 69.9817 27.8897 70.8559C27.4217 71.7291 27.019 72.6362 26.685 73.5696C26.5124 74.2615 26.1684 74.4931 25.8276 74.146C25.1963 73.4542 23.9338 65.3725 23.818 60.6393C23.6801 57.8241 23.3155 55.0247 22.728 52.2687C22.0044 48.0658 21.506 43.8269 21.235 39.5702C20.2597 24.2151 17.6757 14.4597 14.5183 13.9985C12.7391 13.7096 12.5097 15.3262 13.5429 20.4647C14.1105 23.4345 14.4368 26.4458 14.5183 29.4688C14.5183 41.302 14.3468 46.8435 13.768 49.4418C12.7798 54.5514 12.1086 59.7178 11.7585 64.9111C11.658 66.7773 11.3105 68.6218 10.7253 70.3957C9.30331 73.5223 8.37371 76.8523 7.96978 80.2663C7.39639 85.173 6.41997 88.9245 5.38678 90.4828C4.98522 91.0522 4.711 91.7023 4.58296 92.3883C3.98542 94.0063 3.21575 95.5545 2.28727 97.0061C-0.177801 101.277 -0.640859 103.991 0.852114 106.069C1.36871 106.823 2.11472 107.223 2.5745 107.05C4.0096 106.473 7.33846 101.446 7.74037 99.1423C8.65887 94.2356 11.4723 94.4089 11.4723 99.3728C11.4723 101.744 11.7016 102.317 12.9642 103.183C14.3714 104.235 15.697 105.392 16.9297 106.646C19.7999 109.474 21.2929 109.763 22.4407 107.627C23.2446 106.011 26.1148 103.356 27.0333 103.356C27.3205 103.356 27.8907 104.28 28.3537 105.376C29.5016 108.031 31.0513 108.031 34.0341 105.26C36.7111 102.747 38.9774 99.8249 40.7498 96.602C41.6072 94.466 42.3574 95.0439 42.7593 98.2759C42.8947 99.6751 43.2636 101.041 43.8504 102.317C45.1708 104.51 47.4087 103.124 49.0742 99.1423C49.5329 97.987 50.1642 97.0061 50.5093 97.0061C51.3667 97.0061 52.805 99.4849 52.805 101.101C52.805 103.179 55.1629 105.777 57.1103 105.777C59.0052 105.777 60.9569 103.583 62.3352 99.8891C63.4252 97.0601 64.1143 96.0213 64.5731 96.5407C65.0781 97.7107 65.463 98.9294 65.7219 100.178C66.2385 102.025 67.0424 103.872 67.6158 104.273C68.7069 105.135 71.7496 105.369 71.7496 104.619C71.7496 103.696 74.3326 102.887 75.3658 103.407C75.6844 103.582 76.0435 103.669 76.4066 103.659C76.7697 103.649 77.1236 103.542 77.4321 103.35C78.8672 102.595 81.2208 99.54 82.0246 97.3458C83.0578 94.6904 84.4897 96.5914 85.7566 102.311C86.2153 104.446 88.167 104.965 89.8293 103.35L91.1497 102.079L92.8141 103.35C95.2792 105.139 97.1194 104.446 100.22 100.405C103.435 96.1915 104.755 95.2097 106.419 95.8456C108.393 96.3964 110.409 96.7825 112.447 96.9998C118.187 97.6928 119.795 98.5582 120.082 101.095C120.311 103.692 121.804 104.501 124.048 103.231C126.513 101.788 127.549 101.903 129.444 103.923C132.027 106.637 132.716 106.348 137.767 100.344C138.8 99.1326 139.834 98.3242 140.125 98.4967C140.563 99.3705 140.742 100.352 140.642 101.326C140.642 105.366 142.192 107.849 144.259 107.038C145.316 106.103 146.175 104.965 146.784 103.689C149.54 99.0712 150.056 98.8395 151.664 101.264C152.414 102.42 153.386 103.343 153.961 103.343C154.818 103.343 157.864 100.284 157.864 99.3557C157.864 98.6013 161.997 94.6795 162.513 95.0265C162.801 95.1989 163.03 96.7585 163.03 98.4893C163.03 100.914 163.317 101.896 164.236 102.819L165.441 104.031L167.907 101.607C169.285 100.221 171.638 97.6195 173.13 95.7766C174.68 93.9877 176.115 92.6018 176.402 92.7753C176.633 92.8906 176.69 94.2181 176.46 95.603C175.944 99.0667 176.575 102.011 178.01 102.824C179.618 103.686 180.536 102.765 182.603 98.2057C185.645 91.5088 187.426 90.8774 186.793 96.7628C186.043 102.881 189.09 104.151 192.763 99.1337C193.838 97.7812 194.817 96.3535 195.691 94.8615C196.897 92.5531 198.049 93.8809 198.049 97.5742C198.049 102.943 201.092 104.444 203.445 100.345C204.293 98.9678 205.213 97.6368 206.201 96.3576C206.946 95.4635 207.494 94.4206 207.808 93.2979C207.808 91.3354 208.898 92.4897 209.243 94.7992C209.702 97.6853 210.391 98.724 211.826 98.724C213.147 98.724 216.075 95.2022 217.739 91.6242C218.429 90.123 219.404 88.9105 219.864 88.9105C221.184 88.9105 221.011 101.495 219.633 105.076C217.749 109.758 215.484 114.276 212.86 118.583C212.09 119.526 211.54 120.631 211.252 121.816C210.921 123.008 210.334 124.112 209.531 125.049C208.824 125.883 208.244 126.816 207.808 127.82C207.186 129.114 206.393 130.318 205.451 131.399C203.383 134.111 203.154 134.689 203.326 137.229C203.499 139.708 203.613 140 204.934 140C206.254 140 209.296 136.71 211.42 133.015C215.324 126.031 216.702 123.721 217.275 122.971C217.858 122.065 218.339 121.097 218.71 120.085C219.112 118.988 220.318 116.159 221.409 113.851C222.182 112.274 222.816 110.632 223.303 108.944C223.614 107.628 224.017 106.336 224.509 105.077C226.346 100.401 226.518 99.8234 227.609 96.822C228.699 93.7624 230.192 93.1275 230.192 95.783C230.192 97.9761 231.685 99.4775 233.408 99.0734C235.073 98.6122 235.934 100.055 235.934 103.23C235.934 106.751 236.967 109.117 238.517 109.117C240.412 109.117 241.732 106.639 242.076 102.537C242.218 100.803 242.584 99.0952 243.167 97.4569C244.315 95.2055 244.258 60.8601 243.109 52.8399C242.653 49.7797 242.367 46.6962 242.252 43.6039C242.236 41.5678 242.025 39.5383 241.621 37.5432C241.275 36.1001 240.644 32.7516 240.242 30.039C239.209 23.285 238.234 20.803 236.741 20.803C235.362 20.803 234.215 22.881 234.215 25.4211C234.068 27.2493 233.781 29.0633 233.357 30.8473C232.892 32.8965 232.605 34.9824 232.5 37.0817C232.558 39.6207 232.443 40.4291 231.123 51.9745C230.663 55.6107 230.265 59.7091 230.265 61.0368C230.15 63.5155 228.946 67.2133 227.969 67.7898C227.682 67.9633 226.764 67.0355 225.903 65.712L224.295 63.2883L222.975 65.0201C222.292 65.7901 221.817 66.7245 221.598 67.7327C221.561 68.4413 221.364 69.1322 221.023 69.7534C219.87 72.2868 218.929 74.9125 218.21 77.6033C218.163 77.9921 218.037 78.3671 217.839 78.7047C217.642 79.0423 217.377 79.3355 217.062 79.5659C216.144 79.8547 216.431 77.087 217.866 72.0617C218.67 69.1174 218.67 68.5409 217.924 66.6937C216.373 63.0565 214.25 63.4607 213.044 67.5559C212.459 69.9949 211.551 72.344 210.345 74.5405C209.932 75.1046 209.603 75.7271 209.37 76.3878C209.141 76.9072 208.739 77.3694 208.394 77.3694C207.992 77.3694 207.82 75.6376 207.935 72.4627C208.107 68.0753 207.992 67.4988 206.787 66.2864C205.065 64.4964 203.859 65.3629 202.883 69.0572C202.025 72.4046 197.309 82.1598 195.702 83.8917C193.344 86.49 193.865 83.2571 197.252 74.656C198.974 70.2115 198.974 68.9991 197.137 66.5732C195.414 64.3219 194.779 64.2021 194.094 65.9954C191.798 72.0564 185.949 82.5619 184.852 82.5619C183.995 82.5619 183.819 81.1189 184.565 79.6758C185.26 78.0793 185.854 76.4405 186.345 74.7691C186.794 73.1777 187.389 71.6318 188.124 70.152C188.541 69.5109 188.799 68.7783 188.875 68.0161C188.875 66.6884 186.464 62.9942 185.546 62.936C184.569 62.936 182.56 66.3413 182.56 68.0732C182.169 69.7384 181.489 71.3215 180.551 72.7495C179.784 73.9444 179.112 75.1988 178.542 76.5009C178.087 77.47 177.549 78.3972 176.934 79.2717C175.954 80.7618 175.053 82.3032 174.236 83.8896C171.366 89.4311 169.471 88.7962 171.137 82.8505C172.112 79.2715 172.974 77.1939 176.131 70.6727C176.934 68.9409 176.934 68.7091 175.671 66.7466C173.605 63.3411 172.055 64.2075 169.414 70.4409C169.069 71.2492 167.807 73.6742 166.544 75.9255C165.281 78.1186 163.558 81.3516 162.698 82.9671C161.148 86.0267 159.598 87.0085 159.598 84.9296C160.014 82.6645 160.789 80.4812 161.894 78.4634C162.322 77.4497 162.611 76.3818 162.751 75.2895C162.958 74.0569 163.365 72.8669 163.956 71.7675C165.736 68.8814 163.956 62.8228 161.598 63.7442C160.623 64.0913 157.867 69.5746 157.867 71.1329C157.721 72.2315 157.411 73.3015 156.949 74.3076C154.652 79.7338 154.25 80.5994 153.791 81.4076C153.504 81.87 152.643 83.5436 151.896 85.1601C150.289 88.4503 148.108 90.2976 148.108 88.3351C148.285 87.1107 148.653 85.9221 149.199 84.8131C149.862 83.4936 150.363 82.0983 150.692 80.6575C151.225 78.6503 151.896 76.6829 152.7 74.7691C154.939 69.2858 155.399 65.6496 154.193 63.8024C152.643 61.3776 151.38 61.9552 149.657 65.8802C148.994 67.2258 148.475 68.6382 148.108 70.0939C147.855 71.0851 147.469 72.0369 146.96 72.9229C146.462 73.7529 146.077 74.6455 145.812 75.5774C145.408 76.6735 144.847 77.7042 144.146 78.6368C143.328 79.9032 142.654 81.2586 142.138 82.6771C141.736 84.409 137.488 90.0658 136.565 90.0658C135.877 90.0658 136.393 86.8919 137.828 82.4464C138.347 81.0279 138.713 79.5576 138.918 78.0603C138.931 77.4732 139.133 76.906 139.493 76.4438C140.526 75.4049 142.363 67.6067 142.363 64.2065C142.363 59.4733 140.297 56.8177 138.345 59.1261C137.771 59.9344 136.737 63.3983 135.532 68.7081C134.842 71.8259 133.174 74.7119 132.489 74.019C131.915 73.4424 132.203 66.9773 133.752 45.9072C134.61 33.9587 137.426 12.714 138.345 10.9843C138.77 9.5233 138.963 8.00418 138.918 6.4827C138.918 3.88436 138.632 2.67284 137.714 1.51754C136.623 0.0744998 134.958 -0.444786 134.154 0.421686L134.146 0.433526ZM238.452 52.0963C238.624 53.77 238.796 58.3879 238.796 62.3129C238.796 68.4892 238.625 69.8751 237.591 72.0683C236.903 73.4542 236.156 74.3778 235.926 74.089C235.393 72.8898 235.008 71.6297 234.778 70.3365C234.223 68.1636 234.184 65.8897 234.664 63.6987C235.008 61.8515 235.468 58.6767 235.639 56.656C235.926 52.9035 236.959 49.0937 237.706 49.0937C238.142 50.0379 238.395 51.057 238.452 52.0963ZM19.3905 56.4256C19.6778 57.0021 20.0797 62.2557 20.309 68.1432C20.3659 72.3905 20.6726 76.631 21.2275 80.8419C22.6626 85.864 21.4001 99.0258 19.4484 99.0258C18.5299 99.0258 17.3241 92.5598 17.2662 87.3652C17.1757 85.4506 16.8675 83.5526 16.3477 81.7084C15.988 80.9568 15.7823 80.1401 15.7429 79.307C15.7035 78.4738 15.8312 77.6412 16.1184 76.8587C16.5857 75.4 16.6255 73.8369 16.2331 72.3561C15.9385 70.9704 15.8996 69.5419 16.1184 68.1421C16.518 65.6955 16.7863 63.2291 16.9222 60.7535C17.2095 56.8856 17.5535 55.4426 18.128 55.4426C18.3982 55.5008 18.652 55.6195 18.8705 55.7896C19.089 55.9597 19.2668 56.1771 19.3905 56.4256ZM127.658 58.4449C127.429 60.1197 127.2 67.681 127.2 75.1851C127.142 84.5945 126.912 89.097 126.511 89.5012C125.477 90.5401 123.812 89.3858 122.492 86.7875C121.706 85.2517 120.824 83.7673 119.852 82.343C119.101 81.4313 118.553 80.3688 118.244 79.2265C118.661 77.6507 119.238 76.1221 119.966 74.6654C120.692 73.3083 121.269 71.8765 121.689 70.3946C121.865 69.5586 122.135 68.7452 122.492 67.9698C123.275 66.1382 123.965 64.2678 124.559 62.3658C125.879 58.3783 127.256 55.4384 127.774 55.4384C127.939 56.4363 127.9 57.4575 127.659 58.4397L127.658 58.4449ZM110.781 79.8611C109.231 82.8625 107.968 84.3055 106.935 84.3055C106.016 84.3055 106.016 84.1331 106.935 81.8268C107.457 80.5376 107.861 79.2029 108.14 77.8393C108.657 74.9532 110.207 74.0298 111.24 75.9923C111.929 77.264 111.872 77.7822 110.781 79.8611ZM118.417 87.9999C119.148 89.4458 120.096 90.7698 121.229 91.925C121.631 92.0985 121.745 92.6179 121.516 93.1955C121.229 93.8885 120.766 94.0578 120.023 93.8304C119.45 93.6569 117.498 93.2527 115.718 92.9682C111.298 92.2752 110.037 91.5241 110.781 90.0811C111.438 89.0363 112.207 88.0681 113.077 87.1948C113.806 86.5555 114.393 85.7691 114.799 84.8865C114.799 83.2699 116.522 84.771 118.417 88.003V87.9999Z" fill="white"/>
</svg>
