<svg width="1798" height="659" viewBox="0 0 1798 659" fill="none" xmlns="http://www.w3.org/2000/svg">
<g style="mix-blend-mode:overlay" opacity="0.48">
<path d="M8.77902 658.842H11.295L30.395 500.386H27.884L8.77902 658.842Z" fill="#F0FEFF"/>
<path d="M76.122 595.459H78.638L108.482 347.925H105.966L76.122 595.459Z" fill="#F0FEFF"/>
<path d="M137.756 579.402H140.272L170.116 331.868H167.6L137.756 579.402Z" fill="#F0FEFF"/>
<path d="M200.522 553.955H203.038L232.882 306.421H230.366L200.522 553.955Z" fill="#F0FEFF"/>
<path d="M461.305 371.604H463.822L493.648 124.219H491.132L461.305 371.604Z" fill="#F0FEFF"/>
<path d="M568.911 469.42H571.422L601.267 221.883H598.751L568.911 469.42Z" fill="#F0FEFF"/>
<path d="M630.546 453.36H633.062L655.481 267.409H652.965L630.546 453.36Z" fill="#F0FEFF"/>
<path d="M679.822 539.839H682.338L712.182 292.309H709.666L679.822 539.839Z" fill="#F0FEFF"/>
<path d="M752.079 435.682H754.595L784.439 188.148H781.922L752.079 435.682Z" fill="#F0FEFF"/>
<path d="M269.013 481.039H271.529L282.088 393.462H279.572L269.013 481.039Z" fill="#F0FEFF"/>
<path d="M327.809 488.536H330.322L360.166 241.002H357.65L327.809 488.536Z" fill="#F0FEFF"/>
<path d="M389.444 472.479H391.96L421.804 224.945H419.288L389.444 472.479Z" fill="#F0FEFF"/>
<path d="M514.822 422.87H517.338L543.333 207.27H540.822L514.822 422.87Z" fill="#F0FEFF"/>
<path d="M752.293 433.9H754.809L773.909 275.444H771.393L752.293 433.9Z" fill="#F0FEFF"/>
<path d="M819.634 370.518H822.15L851.994 122.984H849.478L819.634 370.518Z" fill="#F0FEFF"/>
<path d="M881.27 354.458H883.786L913.63 106.924H911.114L881.27 354.458Z" fill="#F0FEFF"/>
<path d="M944.037 329.009H946.553L976.397 81.4749H973.881L944.037 329.009Z" fill="#F0FEFF"/>
<path d="M1187.78 214.671H1190.29L1209.39 56.2148H1206.88L1187.78 214.671Z" fill="#F0FEFF"/>
<path d="M1299.67 276.928H1302.18L1329.56 49.856H1327.05L1299.67 276.928Z" fill="#F0FEFF"/>
<path d="M1350.35 351.729H1352.87L1382.65 104.723H1380.13L1350.35 351.729Z" fill="#F0FEFF"/>
<path d="M1404.68 396.292H1407.19L1432.27 188.319H1429.75L1404.68 396.292Z" fill="#F0FEFF"/>
<path d="M1467.39 371.302H1469.91L1499.75 123.768H1497.23L1467.39 371.302Z" fill="#F0FEFF"/>
<path d="M1591.26 334.242H1593.77L1623.62 86.708H1621.1L1591.26 334.242Z" fill="#F0FEFF"/>
<path d="M1641.73 410.762H1644.24L1674.09 163.228H1671.57L1641.73 410.762Z" fill="#F0FEFF"/>
<path d="M1704.83 382.521H1707.35L1728.74 205.096H1726.22L1704.83 382.521Z" fill="#F0FEFF"/>
<path d="M1765.5 374.479H1768.02L1784.58 237.109H1782.06L1765.5 374.479Z" fill="#F0FEFF"/>
<path d="M1521.2 420.151H1523.71L1549.64 205.097H1547.13L1521.2 420.151Z" fill="#F0FEFF"/>
<path d="M1012.53 256.095H1015.04L1025.6 168.52H1023.09L1012.53 256.095Z" fill="#F0FEFF"/>
<path d="M1071.32 263.594H1073.84L1103.68 16.0598H1101.17L1071.32 263.594Z" fill="#F0FEFF"/>
<path d="M1132.96 247.534H1135.47L1165.32 0H1162.8L1132.96 247.534Z" fill="#F0FEFF"/>
<path d="M1240.04 276.321H1242.56L1268.55 60.7209H1266.04L1240.04 276.321Z" fill="#F0FEFF"/>
<path d="M32.313 600.167H1.91302C1.6909 600.172 1.47032 600.129 1.2668 600.04C1.06327 599.951 0.881761 599.818 0.735038 599.651C0.588316 599.484 0.47995 599.287 0.417575 599.074C0.3552 598.861 0.340332 598.637 0.374015 598.417L8.14002 534.011C8.20628 533.534 8.43975 533.097 8.79877 532.776C9.15779 532.456 9.61898 532.274 10.1 532.262H40.5C40.7221 532.256 40.9428 532.299 41.1464 532.388C41.35 532.477 41.5316 532.61 41.6784 532.777C41.8252 532.943 41.9335 533.14 41.9959 533.354C42.0582 533.567 42.0729 533.791 42.039 534.011L34.274 598.417C34.2076 598.894 33.9739 599.331 33.6148 599.652C33.2556 599.972 32.7943 600.155 32.313 600.167Z" fill="#F0FEFF"/>
<path d="M96.106 566.209H65.706C65.4839 566.214 65.2633 566.171 65.0598 566.082C64.8563 565.993 64.6748 565.86 64.528 565.693C64.3813 565.526 64.2729 565.329 64.2106 565.116C64.1482 564.903 64.1333 564.679 64.167 564.459L84.28 397.609C84.3465 397.132 84.5802 396.695 84.9394 396.374C85.2985 396.054 85.7599 395.872 86.241 395.86H116.641C116.863 395.854 117.084 395.898 117.287 395.987C117.491 396.076 117.672 396.208 117.819 396.375C117.966 396.542 118.074 396.739 118.136 396.952C118.199 397.165 118.214 397.389 118.18 397.609L98.063 564.462C97.9962 564.938 97.7629 565.374 97.4046 565.694C97.0463 566.014 96.5862 566.196 96.106 566.209Z" fill="#F0FEFF"/>
<path d="M169.138 455.635H138.738C138.516 455.64 138.295 455.597 138.092 455.508C137.888 455.419 137.707 455.286 137.56 455.119C137.413 454.952 137.305 454.756 137.243 454.542C137.181 454.329 137.166 454.104 137.2 453.885L148.52 359.998C148.586 359.521 148.82 359.084 149.179 358.763C149.538 358.443 149.999 358.261 150.48 358.249H180.88C181.102 358.243 181.323 358.287 181.526 358.376C181.73 358.465 181.911 358.597 182.058 358.764C182.204 358.931 182.313 359.128 182.375 359.341C182.437 359.554 182.452 359.778 182.418 359.998L171.098 453.885C171.032 454.362 170.799 454.8 170.44 455.12C170.08 455.441 169.619 455.623 169.138 455.635Z" fill="#F0FEFF"/>
<path d="M221.914 513.056H191.514C191.292 513.061 191.071 513.018 190.868 512.929C190.664 512.84 190.483 512.707 190.336 512.54C190.189 512.373 190.081 512.176 190.019 511.963C189.956 511.75 189.941 511.526 189.975 511.306L202.806 404.89C202.872 404.413 203.105 403.975 203.464 403.655C203.824 403.334 204.285 403.152 204.766 403.14H235.166C235.388 403.134 235.609 403.178 235.812 403.267C236.016 403.356 236.197 403.488 236.344 403.655C236.491 403.822 236.599 404.019 236.661 404.233C236.723 404.446 236.738 404.67 236.704 404.89L223.875 511.309C223.808 511.785 223.574 512.222 223.215 512.542C222.856 512.862 222.395 513.044 221.914 513.056Z" fill="#F0FEFF"/>
<path d="M290.668 437.957H260.268C260.046 437.962 259.825 437.919 259.622 437.83C259.418 437.741 259.237 437.609 259.09 437.442C258.943 437.275 258.835 437.078 258.773 436.865C258.71 436.652 258.695 436.428 258.729 436.208L268.813 352.571C268.879 352.094 269.113 351.657 269.472 351.336C269.831 351.016 270.292 350.834 270.773 350.822H301.178C301.4 350.816 301.621 350.86 301.824 350.949C302.028 351.038 302.209 351.17 302.356 351.337C302.502 351.504 302.611 351.701 302.673 351.914C302.735 352.127 302.75 352.351 302.716 352.571L292.629 436.209C292.562 436.685 292.328 437.122 291.969 437.443C291.61 437.763 291.149 437.945 290.668 437.957Z" fill="#F0FEFF"/>
<path d="M356.522 386.902H326.122C325.9 386.907 325.679 386.864 325.476 386.775C325.272 386.686 325.091 386.553 324.944 386.387C324.797 386.22 324.689 386.023 324.627 385.81C324.564 385.597 324.549 385.372 324.583 385.153L339.168 264.18C339.235 263.703 339.468 263.266 339.827 262.945C340.187 262.625 340.648 262.442 341.129 262.43H371.529C371.751 262.425 371.972 262.468 372.175 262.557C372.379 262.646 372.56 262.779 372.707 262.946C372.854 263.112 372.962 263.309 373.024 263.523C373.087 263.736 373.102 263.96 373.068 264.18L358.483 385.153C358.416 385.629 358.183 386.067 357.824 386.387C357.464 386.707 357.003 386.89 356.522 386.902Z" fill="#F0FEFF"/>
<path d="M414.292 402.909H383.892C383.67 402.914 383.449 402.871 383.246 402.782C383.042 402.693 382.861 402.561 382.714 402.394C382.567 402.227 382.459 402.03 382.397 401.817C382.334 401.604 382.319 401.379 382.353 401.16L392.701 315.334C392.767 314.857 393.001 314.419 393.36 314.099C393.719 313.778 394.181 313.596 394.662 313.584H425.062C425.284 313.579 425.505 313.622 425.708 313.711C425.912 313.8 426.093 313.933 426.24 314.1C426.387 314.266 426.495 314.463 426.557 314.677C426.62 314.89 426.635 315.114 426.601 315.334L416.253 401.16C416.187 401.637 415.953 402.074 415.594 402.394C415.235 402.715 414.773 402.897 414.292 402.909Z" fill="#F0FEFF"/>
<path d="M482.522 332.196H452.113C451.891 332.201 451.67 332.158 451.467 332.069C451.263 331.98 451.082 331.847 450.935 331.681C450.789 331.514 450.68 331.317 450.618 331.104C450.556 330.891 450.541 330.666 450.575 330.447L472.775 146.286C472.842 145.809 473.075 145.371 473.434 145.051C473.793 144.73 474.255 144.548 474.736 144.536H505.136C505.358 144.53 505.579 144.574 505.782 144.663C505.986 144.752 506.167 144.885 506.314 145.052C506.461 145.219 506.569 145.415 506.631 145.629C506.694 145.842 506.709 146.066 506.675 146.286L484.475 330.447C484.409 330.922 484.177 331.359 483.819 331.679C483.461 331.999 483.002 332.182 482.522 332.196Z" fill="#F0FEFF"/>
<path d="M534.854 393.263H504.454C504.232 393.268 504.011 393.225 503.808 393.136C503.604 393.047 503.423 392.914 503.276 392.747C503.129 392.58 503.021 392.383 502.959 392.17C502.896 391.957 502.881 391.733 502.915 391.513L522.687 227.522C522.754 227.045 522.987 226.608 523.347 226.288C523.706 225.967 524.167 225.785 524.648 225.773H555.048C555.27 225.767 555.491 225.811 555.694 225.9C555.898 225.989 556.079 226.121 556.226 226.288C556.373 226.455 556.481 226.652 556.544 226.865C556.606 227.078 556.621 227.302 556.587 227.522L536.815 391.509C536.749 391.986 536.516 392.425 536.157 392.746C535.798 393.068 535.336 393.251 534.854 393.263Z" fill="#F0FEFF"/>
<path d="M593.573 401.4H563.168C562.946 401.405 562.725 401.362 562.522 401.273C562.318 401.184 562.137 401.052 561.99 400.885C561.844 400.718 561.735 400.521 561.673 400.308C561.611 400.095 561.596 399.87 561.63 399.651L576.215 278.678C576.281 278.201 576.515 277.764 576.874 277.443C577.234 277.123 577.695 276.941 578.176 276.929H608.576C608.798 276.923 609.019 276.967 609.222 277.056C609.426 277.145 609.607 277.277 609.754 277.444C609.901 277.611 610.009 277.808 610.071 278.021C610.134 278.234 610.149 278.458 610.115 278.678L595.529 399.651C595.463 400.127 595.23 400.564 594.872 400.884C594.514 401.204 594.053 401.387 593.573 401.4Z" fill="#F0FEFF"/>
<path d="M658.861 355.049H628.456C628.234 355.054 628.013 355.011 627.81 354.922C627.606 354.833 627.425 354.7 627.278 354.533C627.132 354.366 627.023 354.169 626.961 353.956C626.899 353.743 626.884 353.518 626.918 353.299L633.305 300.317C633.372 299.84 633.605 299.403 633.965 299.083C634.324 298.762 634.785 298.58 635.266 298.568H665.666C665.888 298.562 666.109 298.605 666.312 298.694C666.516 298.783 666.698 298.916 666.844 299.083C666.991 299.249 667.1 299.446 667.162 299.66C667.224 299.873 667.239 300.097 667.205 300.317L660.822 353.299C660.756 353.776 660.522 354.214 660.163 354.534C659.804 354.855 659.342 355.037 658.861 355.049Z" fill="#F0FEFF"/>
<path d="M704.101 474.972H673.701C673.479 474.977 673.258 474.934 673.055 474.845C672.851 474.756 672.67 474.624 672.523 474.457C672.376 474.29 672.268 474.093 672.206 473.88C672.143 473.667 672.128 473.442 672.162 473.223L691.707 311.123C691.773 310.646 692.007 310.208 692.366 309.888C692.725 309.567 693.186 309.385 693.667 309.373H724.067C724.289 309.367 724.51 309.411 724.713 309.5C724.917 309.589 725.098 309.722 725.245 309.888C725.392 310.055 725.5 310.252 725.562 310.466C725.624 310.679 725.639 310.903 725.605 311.123L706.061 473.223C705.995 473.699 705.761 474.137 705.402 474.457C705.043 474.778 704.582 474.96 704.101 474.972Z" fill="#F0FEFF"/>
<path d="M776.264 371.609H745.864C745.642 371.614 745.421 371.571 745.218 371.482C745.014 371.393 744.833 371.26 744.686 371.093C744.539 370.926 744.431 370.729 744.369 370.516C744.306 370.303 744.291 370.078 744.325 369.859L758.911 248.887C758.977 248.41 759.21 247.972 759.569 247.652C759.929 247.331 760.39 247.149 760.871 247.137H791.276C791.498 247.131 791.719 247.175 791.922 247.264C792.126 247.353 792.307 247.485 792.454 247.652C792.601 247.819 792.709 248.016 792.771 248.229C792.833 248.443 792.848 248.667 792.814 248.887L778.222 369.855C778.157 370.332 777.924 370.77 777.565 371.092C777.207 371.413 776.745 371.596 776.264 371.609Z" fill="#F0FEFF"/>
<path d="M845.032 296.384H814.632C814.41 296.389 814.189 296.346 813.986 296.257C813.782 296.168 813.601 296.036 813.454 295.869C813.308 295.702 813.199 295.505 813.137 295.292C813.075 295.079 813.06 294.854 813.094 294.635L823.03 212.224C823.096 211.747 823.329 211.309 823.688 210.989C824.048 210.668 824.509 210.486 824.99 210.474H855.395C855.617 210.468 855.838 210.512 856.041 210.601C856.245 210.69 856.426 210.822 856.573 210.989C856.72 211.156 856.828 211.353 856.89 211.567C856.952 211.78 856.967 212.004 856.933 212.224L846.997 294.635C846.931 295.112 846.696 295.551 846.336 295.871C845.976 296.192 845.514 296.373 845.032 296.384Z" fill="#F0FEFF"/>
<path d="M904.132 301.359H873.722C873.5 301.364 873.279 301.321 873.076 301.232C872.872 301.143 872.691 301.01 872.544 300.843C872.397 300.676 872.289 300.479 872.227 300.266C872.164 300.053 872.149 299.828 872.183 299.609L886.951 177.123C887.017 176.646 887.251 176.209 887.61 175.888C887.97 175.568 888.431 175.386 888.912 175.374H919.312C919.534 175.368 919.755 175.412 919.958 175.501C920.162 175.59 920.343 175.722 920.49 175.889C920.637 176.056 920.745 176.253 920.807 176.466C920.87 176.679 920.885 176.903 920.851 177.123L906.092 299.609C906.026 300.086 905.793 300.523 905.434 300.844C905.074 301.165 904.613 301.347 904.132 301.359Z" fill="#F0FEFF"/>
<path d="M968.399 263.468H937.999C937.777 263.473 937.556 263.43 937.353 263.341C937.149 263.252 936.968 263.12 936.821 262.953C936.674 262.786 936.566 262.589 936.504 262.376C936.441 262.163 936.426 261.939 936.46 261.719L951.046 140.746C951.112 140.269 951.346 139.832 951.705 139.511C952.064 139.19 952.525 139.008 953.006 138.996H983.406C983.628 138.99 983.849 139.034 984.053 139.123C984.256 139.212 984.438 139.344 984.584 139.511C984.731 139.678 984.84 139.875 984.902 140.089C984.964 140.302 984.979 140.526 984.945 140.746L970.36 261.719C970.294 262.196 970.06 262.633 969.701 262.953C969.342 263.274 968.88 263.456 968.399 263.468Z" fill="#F0FEFF"/>
<path d="M1030.88 240.371H1000.48C1000.26 240.376 1000.04 240.333 999.837 240.244C999.633 240.154 999.452 240.022 999.305 239.855C999.158 239.688 999.05 239.491 998.988 239.278C998.925 239.065 998.91 238.84 998.944 238.621L1005.15 187.158C1005.22 186.681 1005.45 186.243 1005.81 185.923C1006.17 185.602 1006.63 185.42 1007.11 185.408H1037.51C1037.73 185.403 1037.95 185.446 1038.16 185.535C1038.36 185.624 1038.54 185.757 1038.69 185.924C1038.83 186.09 1038.94 186.287 1039.01 186.501C1039.07 186.714 1039.08 186.938 1039.05 187.158L1032.85 238.621C1032.78 239.098 1032.55 239.537 1032.19 239.858C1031.83 240.178 1031.37 240.36 1030.88 240.371Z" fill="#F0FEFF"/>
<path d="M1091.37 233.821H1060.97C1060.75 233.826 1060.53 233.783 1060.33 233.694C1060.12 233.605 1059.94 233.472 1059.79 233.306C1059.65 233.139 1059.54 232.942 1059.48 232.729C1059.41 232.516 1059.4 232.291 1059.43 232.072L1074.02 111.099C1074.09 110.622 1074.32 110.185 1074.68 109.864C1075.04 109.543 1075.5 109.361 1075.98 109.349H1106.38C1106.61 109.343 1106.83 109.387 1107.03 109.476C1107.23 109.565 1107.42 109.698 1107.56 109.865C1107.71 110.032 1107.82 110.229 1107.88 110.442C1107.94 110.655 1107.96 110.879 1107.92 111.099L1093.34 232.072C1093.27 232.549 1093.04 232.987 1092.68 233.308C1092.32 233.628 1091.85 233.81 1091.37 233.821Z" fill="#F0FEFF"/>
<path d="M1161.17 150.076H1130.77C1130.55 150.081 1130.33 150.038 1130.12 149.949C1129.92 149.86 1129.74 149.728 1129.59 149.561C1129.44 149.394 1129.34 149.197 1129.27 148.984C1129.21 148.771 1129.2 148.546 1129.23 148.327L1143.82 27.354C1143.88 26.8772 1144.12 26.4394 1144.48 26.1189C1144.83 25.7983 1145.3 25.6159 1145.78 25.604H1176.18C1176.4 25.5986 1176.62 25.6418 1176.82 25.7309C1177.03 25.82 1177.21 25.9527 1177.35 26.1196C1177.5 26.2864 1177.61 26.4835 1177.67 26.6967C1177.73 26.91 1177.75 27.1344 1177.72 27.354L1163.13 148.327C1163.06 148.804 1162.83 149.241 1162.47 149.562C1162.11 149.882 1161.65 150.064 1161.17 150.076Z" fill="#F0FEFF"/>
<path d="M1396.48 347.163H1427.24C1427.67 347.152 1428.08 346.989 1428.41 346.701C1428.73 346.413 1428.94 346.019 1429 345.591L1436.81 280.831C1436.84 280.633 1436.82 280.432 1436.77 280.24C1436.71 280.048 1436.61 279.871 1436.48 279.721C1436.35 279.571 1436.19 279.452 1436 279.372C1435.82 279.292 1435.62 279.253 1435.42 279.258H1404.67C1404.23 279.269 1403.82 279.433 1403.5 279.721C1403.17 280.009 1402.96 280.402 1402.9 280.831L1395.09 345.591C1395.06 345.788 1395.08 345.99 1395.13 346.181C1395.19 346.373 1395.29 346.55 1395.42 346.7C1395.55 346.85 1395.71 346.969 1395.9 347.049C1396.08 347.129 1396.28 347.168 1396.48 347.163Z" fill="#F0FEFF"/>
<path d="M1340.87 313.209H1371.63C1372.06 313.199 1372.48 313.034 1372.8 312.746C1373.12 312.458 1373.33 312.065 1373.39 311.636L1393.55 144.429C1393.58 144.232 1393.57 144.03 1393.51 143.838C1393.46 143.647 1393.36 143.47 1393.23 143.32C1393.1 143.17 1392.93 143.051 1392.75 142.971C1392.57 142.891 1392.37 142.852 1392.17 142.857H1361.41C1360.98 142.867 1360.56 143.031 1360.24 143.319C1359.92 143.607 1359.71 144 1359.65 144.429L1339.49 311.636C1339.46 311.833 1339.47 312.035 1339.53 312.227C1339.58 312.418 1339.68 312.595 1339.81 312.745C1339.95 312.895 1340.11 313.014 1340.29 313.094C1340.47 313.175 1340.67 313.214 1340.87 313.209Z" fill="#F0FEFF"/>
<path d="M1292.11 222.491H1322.87C1323.3 222.48 1323.72 222.316 1324.04 222.028C1324.36 221.74 1324.57 221.346 1324.63 220.918L1335.99 126.677C1336.02 126.48 1336.01 126.278 1335.95 126.086C1335.9 125.895 1335.8 125.718 1335.67 125.568C1335.54 125.418 1335.37 125.299 1335.19 125.219C1335.01 125.139 1334.81 125.1 1334.61 125.105H1303.85C1303.42 125.116 1303.01 125.28 1302.68 125.568C1302.36 125.855 1302.15 126.249 1302.09 126.677L1290.73 220.918C1290.7 221.115 1290.71 221.317 1290.77 221.509C1290.82 221.7 1290.92 221.878 1291.05 222.028C1291.18 222.178 1291.35 222.297 1291.53 222.377C1291.71 222.457 1291.91 222.496 1292.11 222.491Z" fill="#F0FEFF"/>
<path d="M1227.88 260.052H1258.64C1259.07 260.041 1259.49 259.877 1259.81 259.589C1260.13 259.301 1260.34 258.908 1260.4 258.48L1273.28 151.709C1273.31 151.512 1273.29 151.31 1273.24 151.119C1273.18 150.927 1273.08 150.75 1272.95 150.6C1272.82 150.45 1272.66 150.331 1272.47 150.251C1272.29 150.171 1272.09 150.132 1271.89 150.137H1241.13C1240.7 150.147 1240.29 150.311 1239.96 150.599C1239.64 150.887 1239.43 151.28 1239.37 151.709L1226.5 258.48C1226.47 258.677 1226.48 258.879 1226.54 259.07C1226.59 259.262 1226.69 259.439 1226.82 259.589C1226.96 259.738 1227.12 259.857 1227.3 259.937C1227.48 260.017 1227.68 260.057 1227.88 260.052Z" fill="#F0FEFF"/>
<path d="M1177.41 184.954H1207.82C1208.3 184.942 1208.76 184.759 1209.12 184.439C1209.48 184.118 1209.72 183.681 1209.78 183.204L1219.87 99.5678C1219.9 99.3482 1219.88 99.1238 1219.82 98.9106C1219.76 98.6974 1219.65 98.5005 1219.5 98.3337C1219.36 98.1669 1219.18 98.0341 1218.97 97.945C1218.77 97.8559 1218.55 97.8125 1218.33 97.8178H1187.92C1187.44 97.8298 1186.98 98.0124 1186.62 98.333C1186.26 98.6535 1186.03 99.0911 1185.96 99.5678L1175.88 183.204C1175.84 183.423 1175.86 183.647 1175.92 183.861C1175.98 184.074 1176.09 184.271 1176.24 184.438C1176.38 184.605 1176.56 184.737 1176.77 184.826C1176.97 184.916 1177.19 184.959 1177.41 184.954Z" fill="#F0FEFF"/>
<path d="M1486.94 347.088H1456.19C1455.99 347.093 1455.79 347.054 1455.61 346.974C1455.42 346.893 1455.26 346.774 1455.13 346.624C1455 346.475 1454.9 346.298 1454.84 346.106C1454.79 345.915 1454.77 345.713 1454.8 345.516L1469.43 224.189C1469.49 223.76 1469.7 223.366 1470.02 223.078C1470.35 222.79 1470.76 222.626 1471.19 222.616H1501.95C1502.15 222.611 1502.35 222.65 1502.53 222.73C1502.72 222.81 1502.88 222.93 1503.01 223.079C1503.14 223.229 1503.24 223.406 1503.3 223.598C1503.35 223.79 1503.37 223.991 1503.33 224.189L1488.71 345.516C1488.65 345.944 1488.44 346.337 1488.11 346.625C1487.79 346.913 1487.38 347.077 1486.94 347.088Z" fill="#F0FEFF"/>
<path d="M1544.71 363.097H1513.96C1513.76 363.102 1513.56 363.063 1513.38 362.983C1513.19 362.903 1513.03 362.783 1512.9 362.633C1512.76 362.483 1512.67 362.306 1512.61 362.115C1512.56 361.923 1512.54 361.721 1512.57 361.524L1522.96 275.345C1523.02 274.916 1523.23 274.523 1523.56 274.235C1523.88 273.947 1524.29 273.783 1524.72 273.772H1555.48C1555.68 273.767 1555.88 273.806 1556.06 273.886C1556.25 273.966 1556.41 274.086 1556.54 274.236C1556.67 274.385 1556.77 274.562 1556.83 274.754C1556.88 274.946 1556.9 275.148 1556.87 275.345L1546.48 361.524C1546.42 361.952 1546.21 362.346 1545.88 362.634C1545.56 362.922 1545.15 363.086 1544.71 363.097Z" fill="#F0FEFF"/>
<path d="M1612.94 292.382H1582.18C1581.98 292.387 1581.78 292.348 1581.6 292.268C1581.42 292.188 1581.25 292.069 1581.12 291.919C1580.99 291.769 1580.89 291.592 1580.84 291.4C1580.78 291.209 1580.77 291.007 1580.8 290.81L1603.05 106.295C1603.1 105.866 1603.31 105.472 1603.64 105.184C1603.96 104.896 1604.37 104.732 1604.81 104.722H1635.56C1635.76 104.717 1635.96 104.756 1636.15 104.836C1636.33 104.916 1636.49 105.035 1636.62 105.185C1636.76 105.335 1636.85 105.512 1636.91 105.704C1636.96 105.896 1636.98 106.097 1636.95 106.295L1614.7 290.809C1614.64 291.237 1614.43 291.631 1614.11 291.919C1613.79 292.208 1613.37 292.371 1612.94 292.382Z" fill="#F0FEFF"/>
<path d="M1665.28 353.448H1634.52C1634.32 353.453 1634.12 353.414 1633.94 353.334C1633.76 353.254 1633.6 353.135 1633.46 352.985C1633.33 352.835 1633.23 352.658 1633.18 352.466C1633.12 352.275 1633.11 352.073 1633.14 351.876L1652.95 187.531C1653.01 187.102 1653.22 186.708 1653.55 186.42C1653.87 186.132 1654.28 185.968 1654.72 185.958H1685.47C1685.67 185.953 1685.87 185.992 1686.05 186.072C1686.24 186.152 1686.4 186.272 1686.53 186.422C1686.66 186.572 1686.76 186.748 1686.82 186.94C1686.87 187.132 1686.89 187.334 1686.86 187.531L1667.04 351.876C1666.98 352.305 1666.77 352.699 1666.45 352.987C1666.12 353.275 1665.71 353.438 1665.28 353.448Z" fill="#F0FEFF"/>
<path d="M1723.99 361.586H1693.24C1693.04 361.591 1692.84 361.552 1692.66 361.472C1692.47 361.392 1692.31 361.272 1692.18 361.122C1692.05 360.973 1691.95 360.796 1691.89 360.604C1691.84 360.413 1691.82 360.211 1691.85 360.014L1706.48 238.687C1706.54 238.258 1706.75 237.865 1707.07 237.577C1707.4 237.289 1707.81 237.124 1708.24 237.114H1739C1739.2 237.109 1739.4 237.148 1739.58 237.228C1739.77 237.308 1739.93 237.428 1740.06 237.578C1740.19 237.728 1740.29 237.904 1740.35 238.096C1740.4 238.288 1740.42 238.489 1740.38 238.687L1725.76 360.014C1725.7 360.442 1725.49 360.836 1725.16 361.123C1724.84 361.411 1724.43 361.575 1723.99 361.586Z" fill="#F0FEFF"/>
<path d="M1789.28 315.234H1758.52C1758.32 315.239 1758.12 315.2 1757.94 315.12C1757.76 315.04 1757.6 314.921 1757.46 314.771C1757.33 314.621 1757.23 314.444 1757.18 314.252C1757.12 314.061 1757.11 313.859 1757.14 313.662L1763.57 260.326C1763.63 259.897 1763.84 259.503 1764.16 259.215C1764.48 258.927 1764.9 258.763 1765.33 258.753H1796.09C1796.29 258.748 1796.49 258.787 1796.67 258.867C1796.85 258.947 1797.02 259.066 1797.15 259.216C1797.28 259.366 1797.38 259.543 1797.43 259.735C1797.49 259.927 1797.5 260.128 1797.47 260.326L1791.04 313.662C1790.98 314.09 1790.77 314.483 1790.45 314.771C1790.13 315.059 1789.71 315.223 1789.28 315.234Z" fill="#F0FEFF"/>
</g>
</svg>
